<svg xmlns="http://www.w3.org/2000/svg" viewBox="0 0 64 64" width="72" height="72">
  <rect width="60" height="60" x="2" y="2" rx="8" ry="8" fill="#c0c0c0" stroke="#000000" stroke-width="2"/>
  <rect width="52" height="52" x="6" y="6" rx="4" ry="4" fill="#ffffff" stroke="#808080" stroke-width="1"/>
  <path d="M32 14 C22.059 14 14 22.059 14 32 C14 41.941 22.059 50 32 50 C41.941 50 50 41.941 50 32 C50 22.059 41.941 14 32 14 Z M32 18 C39.732 18 46 24.268 46 32 C46 39.732 39.732 46 32 46 C24.268 46 18 39.732 18 32 C18 24.268 24.268 18 32 18 Z" fill="#FF0000"/>
  <rect x="30" y="22" width="4" height="16" fill="#FF0000"/>
</svg>
