<svg xmlns="http://www.w3.org/2000/svg" viewBox="0 0 24 24" width="16" height="16">
  <path fill="#333333" d="M20 4H4c-1.11 0-2 .89-2 2v12c0 1.1.9 2 2 2h16c1.1 0 2-.9 2-2V6c0-1.11-.9-2-2-2zm-.4 4.25l-7.07 4.42c-.32.2-.74.2-1.06 0L4.4 8.25C4.15 8.09 4 7.82 4 7.5c0-.67.73-1.07 1.3-.67L12 11l6.7-4.17c.57-.4 1.3.01 1.3.67c0 .32-.15.59-.4.75z"/>
  <text x="6" y="17.5" font-family="Tahoma, Geneva, sans-serif" font-size="7" font-weight="bold" fill="#0058A8" style="stroke: white; stroke-width: 0.5px; paint-order: stroke;">B</text>
</svg>
