<?xml version="1.0" standalone="no"?>
<!DOCTYPE svg PUBLIC "-//W3C//DTD SVG 20010904//EN"
 "http://www.w3.org/TR/2001/REC-SVG-20010904/DTD/svg10.dtd">
<svg version="1.0" xmlns="http://www.w3.org/2000/svg"
 width="327.000000pt" height="474.000000pt" viewBox="0 0 327.000000 474.000000"
 preserveAspectRatio="xMidYMid meet">

<g transform="translate(0.000000,474.000000) scale(0.100000,-0.100000)"
fill="#000000" stroke="none">
<path d="M243 2974 c3 -1411 5 -1577 20 -1649 76 -368 286 -676 607 -890 169
-113 336 -181 545 -222 134 -26 377 -23 515 6 319 68 583 219 792 456 167 189
277 413 335 678 25 116 25 418 0 537 -88 411 -328 753 -674 957 -96 56 -271
132 -305 133 -17 0 -18 -21 -18 -304 l0 -304 71 -48 c369 -245 480 -734 258
-1131 -31 -55 -73 -107 -144 -179 -89 -89 -112 -106 -205 -152 -143 -70 -213
-86 -380 -86 -244 0 -426 72 -594 233 -175 168 -258 364 -258 606 0 289 134
547 365 700 l57 38 0 318 0 318 -27 -9 c-92 -28 -218 -87 -311 -146 -29 -19
-57 -34 -62 -34 -6 0 -10 218 -10 608 0 485 -3 618 -14 654 -19 63 -67 130
-123 170 -27 19 -130 94 -231 167 -100 72 -189 134 -198 138 -13 5 -14 -173
-11 -1563z"/>
<path d="M1555 3582 c-54 -26 -92 -64 -115 -114 -19 -41 -20 -73 -20 -749 l0
-707 28 -53 c71 -135 264 -161 366 -49 19 21 39 56 45 77 7 25 11 276 11 739
l0 702 -28 53 c-38 73 -100 112 -186 116 -44 3 -72 -1 -101 -15z"/>
</g>
</svg>
